<svg width="64" height="64" viewBox="0 0 64 64" fill="none" xmlns="http://www.w3.org/2000/svg">
<path fill-rule="evenodd" clip-rule="evenodd" d="M30.3828 6.47319C31.3686 5.84227 32.6314 5.84227 33.6172 6.47319L58.6172 22.4732C60.0127 23.3663 60.42 25.2216 59.5268 26.6172C58.6337 28.0127 56.7784 28.4199 55.3828 27.5268L53 26.0018V50C53 54.4183 49.4183 58 45 58H19C14.5817 58 11 54.4183 11 50V26.0018L8.61717 27.5268C7.22165 28.4199 5.36632 28.0127 4.47319 26.6172C3.58006 25.2216 3.98732 23.3663 5.38284 22.4732L30.3828 6.47319ZM21.5 28C21.5 26.8954 22.3954 26 23.5 26H29.5C30.6046 26 31.5 26.8954 31.5 28V34C31.5 35.1046 30.6046 36 29.5 36H23.5C22.3954 36 21.5 35.1046 21.5 34V28ZM23.5 41C23.5 39.8954 24.3954 39 25.5 39H29.5C30.6046 39 31.5 39.8954 31.5 41V45C31.5 46.1046 30.6046 47 29.5 47H25.5C24.3954 47 23.5 46.1046 23.5 45V41ZM34.5 30C34.5 28.8954 35.3954 28 36.5 28H40.5C41.6046 28 42.5 28.8954 42.5 30V34C42.5 35.1046 41.6046 36 40.5 36H36.5C35.3954 36 34.5 35.1046 34.5 34V30ZM34.5 41C34.5 39.8954 35.3954 39 36.5 39H40.5C41.6046 39 42.5 39.8954 42.5 41V45C42.5 46.1046 41.6046 47 40.5 47H36.5C35.3954 47 34.5 46.1046 34.5 45V41Z" fill="black"/>
</svg>
