<svg width="48" height="48" viewBox="0 0 48 48" fill="none" xmlns="http://www.w3.org/2000/svg">
<path fill-rule="evenodd" clip-rule="evenodd" d="M1.12587 5.39026C0 7.55764 0 10.4051 0 16.1V31.9C0 37.5949 0 40.4424 1.12587 42.6097C2.07462 44.4362 3.56382 45.9254 5.39026 46.8741C7.55764 48 10.4051 48 16.1 48H31.9C37.5949 48 40.4424 48 42.6097 46.8741C44.4362 45.9254 45.9254 44.4362 46.8741 42.6097C48 40.4424 48 37.5949 48 31.9V16.1C48 10.4051 48 7.55764 46.8741 5.39026C45.9254 3.56382 44.4362 2.07462 42.6097 1.12587C40.4424 0 37.5949 0 31.9 0H16.1C10.4051 0 7.55764 0 5.39026 1.12587C3.56382 2.07462 2.07462 3.56382 1.12587 5.39026ZM41.2585 14.944C40.8433 13.402 39.6275 12.1862 38.0855 11.771C35.2684 11 23.9999 11 23.9999 11C23.9999 11 12.7314 11 9.91432 11.7413C8.40197 12.1565 7.1565 13.402 6.74135 14.944C6 17.7611 6 23.6029 6 23.6029C6 23.6029 6 29.4744 6.74135 32.2619C7.1565 33.8039 8.37231 35.0197 9.91432 35.4348C12.7611 36.2058 23.9999 36.2058 23.9999 36.2058C23.9999 36.2058 35.2684 36.2058 38.0855 35.4645C39.6275 35.0493 40.8433 33.8335 41.2585 32.2915C41.9998 29.4744 41.9998 23.6326 41.9998 23.6326C41.9998 23.6326 42.0295 17.7611 41.2585 14.944ZM20.4118 28.794L29.7824 23.397L20.4118 18V28.794Z" fill="black"/>
</svg>
